<?xml version="1.0" standalone="no"?>
<!DOCTYPE svg PUBLIC "-//W3C//DTD SVG 20010904//EN"
 "http://www.w3.org/TR/2001/REC-SVG-20010904/DTD/svg10.dtd">
<svg version="1.0" xmlns="http://www.w3.org/2000/svg"
 width="400.000000pt" height="400.000000pt" viewBox="0 0 400.000000 400.000000"
 preserveAspectRatio="xMidYMid meet">
<metadata>
Created by potrace 1.14, written by Peter Selinger 2001-2017
</metadata>
<g transform="translate(0.000000,400.000000) scale(0.100000,-0.100000)"
fill="#000000" stroke="none">
<path d="M520 3692 l0 -48 245 1 245 1 0 -36 c1 -58 1 -3164 1 -3180 -1 -13
-33 -15 -243 -15 l-243 0 -6 -43 c-3 -23 -3 -44 -1 -47 3 -3 637 -5 1409 -5
l1403 0 0 575 c0 453 -3 575 -12 576 -7 0 -28 2 -45 3 -24 2 -33 -2 -34 -13 0
-9 -3 -27 -5 -41 -13 -73 -37 -209 -41 -235 -8 -55 -53 -225 -74 -283 -73
-200 -167 -315 -312 -383 -73 -34 -177 -64 -257 -74 -30 -4 -62 -9 -71 -10
-94 -18 -885 -29 -895 -13 -6 10 -6 3207 0 3217 2 3 117 6 255 6 l251 0 0 47
0 48 -785 0 -785 0 0 -48z"/>
</g>
</svg>
